<svg width="77" height="77" viewBox="0 0 77 77" fill="none" xmlns="http://www.w3.org/2000/svg">
  <path d="M20.7421 0L4.80664 0C2.15201 0 0 2.15201 0 4.80664L0 69.9903C0 73.8617 3.13951 77 7.01085 77C11.2662 77 15.0579 74.3107 16.4637 70.2942L34.3524 19.1836C37.6338 9.80808 30.6752 0 20.7421 0Z" fill="#0E5EC0"/>
  <path d="M76.9062 4.80664V71.5301C76.9062 75.2855 73.1344 77.8693 69.6325 76.5127L60.6988 73.0519C56.3483 71.3666 51.4982 71.7052 47.2504 73.635C43.6565 75.2678 39.5119 76.9062 37.3516 76.9062C30.8922 76.9062 26.3676 70.5274 28.5029 64.4311L48.9574 6.03321C50.2231 2.41945 53.6341 0 57.4631 0L72.0996 0C74.7542 0 76.9062 2.15201 76.9062 4.80664Z" fill="#0E5EC0"/>
</svg>
